<svg xmlns="http://www.w3.org/2000/svg" viewBox="0 0 20.74 17.58"><defs><style>.cls-1{fill:#009ddd;}.cls-2{fill:#f32d38;}.cls-3{fill:#fff;}</style></defs><title>logo</title><g id="Layer_2" data-name="Layer 2"><g id="Layer_1-2" data-name="Layer 1"><line class="cls-1" x1="18.82" y1="8.86" x2="19.84" y2="7.94"/><path class="cls-1" d="M19.34,8.59A.46.46,0,0,1,19,8.53a.49.49,0,0,1-.15-.67l.74-1.16a.42.42,0,0,1,.67-.15.5.5,0,0,1,.15.67l-.74,1.16A.54.54,0,0,1,19.34,8.59Z"/><path class="cls-1" d="M19.67,3.68A1.93,1.93,0,0,0,18,1.57L3.05,0A1.92,1.92,0,0,0,.94,1.71L0,10.61a1.93,1.93,0,0,0,1.71,2.11l14.9,1.56a1.92,1.92,0,0,0,2.11-1.7l.4-3.78H19l0,.35-.57-.61.11,3.53a2.25,2.25,0,0,1-1.82,1.38L1.85,12.82c-.59-.06-.94-1.6-.88-2.19l.44-8.52c.06-.59,1-.92,1.63-.85l14.68.22c.59.06,1.16,1.52,1.1,2.11l-.23,1.64.61.17Z"/><path class="cls-2" d="M19,8.69a.51.51,0,0,1-.3-.22.5.5,0,0,1,.16-.67L20,7.09a.49.49,0,0,1,.67.16.47.47,0,0,1-.16.66l-1.17.72A.49.49,0,0,1,19,8.69Z"/><path class="cls-2" d="M19.06,7.75l-.2.47.07,3c0,.57-.72,1.63-1.3,1.67l-14.51.48a2,2,0,0,1-1.59-1.43L1.35,3.7c0-.58.33-1.9.9-1.94l14.57-.27c.57,0,1.69.45,1.74,1l.44,3h0l-.24-3.16a1.86,1.86,0,0,0-2-1.72L2.25,1.76a2.19,2.19,0,0,0-2,2.08l1,8.61a1.82,1.82,0,0,0,1.94,1.73l14.5-1.08a1.65,1.65,0,0,0,1.44-2"/><path class="cls-3" d="M19.23,8.75h0l1-1a.49.49,0,0,0-.69-.69l-1,1a.45.45,0,0,0-.13.28h0V11.7a1,1,0,0,1-1,1.05H2.82a1,1,0,0,1-1-1.05V3a1,1,0,0,1,1-1H17.36A1,1,0,0,1,18.4,3V5.75h0l-2,2-.13.1a.7.7,0,0,1-.3.07.64.64,0,0,1-.23,0,.76.76,0,0,1-.19-.12,1,1,0,0,1-.13-.2.71.71,0,0,1,0-.26.77.77,0,0,1,0-.27.69.69,0,0,1,.13-.2.64.64,0,0,1,.19-.13.59.59,0,0,1,.23,0,.61.61,0,0,1,.28.06.42.42,0,0,1,.21.16l.61-.73a1.44,1.44,0,0,0-.51-.3,2,2,0,0,0-.65-.11,1.8,1.8,0,0,0-.62.11,1.45,1.45,0,0,0-.51.31,1.5,1.5,0,0,0-.35.5,1.57,1.57,0,0,0,.35,1.77,1.64,1.64,0,0,0,.51.32,1.87,1.87,0,0,0,1.29,0A1.48,1.48,0,0,0,17,8.46s2.05-2,2.05-2a.51.51,0,0,0,.14-.4V3a1.87,1.87,0,0,0-1.87-1.87H2.82A1.87,1.87,0,0,0,1,3V11.7a1.87,1.87,0,0,0,1.87,1.87H17.36a1.87,1.87,0,0,0,1.87-1.87Z"/><polygon class="cls-3" points="11.12 6.6 11.12 5.78 9.09 5.78 9.09 8.73 11.19 8.73 11.19 7.91 10.02 7.91 10.02 7.63 11.05 7.63 11.05 6.86 10.02 6.86 10.02 6.6 11.12 6.6"/><path class="cls-3" d="M12.77,6.57a.4.4,0,0,1,.17,0,.65.65,0,0,1,.26.06.67.67,0,0,1,.25.19l.62-.63a1.55,1.55,0,0,0-.54-.32,1.59,1.59,0,0,0-.59-.12,1.72,1.72,0,0,0-.44.06,1.18,1.18,0,0,0-.4.17,1.28,1.28,0,0,0-.29.32,1,1,0,0,0-.11.47.81.81,0,0,0,.06.33.74.74,0,0,0,.17.24.85.85,0,0,0,.25.17,1.26,1.26,0,0,0,.29.12l.25.09.16.07a.18.18,0,0,1,.08.06.09.09,0,0,1,0,.07.12.12,0,0,1-.07.11l-.15,0a.74.74,0,0,1-.36-.09.88.88,0,0,1-.28-.2l-.6.66.25.18.3.14a1.89,1.89,0,0,0,.34.09,2,2,0,0,0,.35,0,1.61,1.61,0,0,0,.44-.06,1.2,1.2,0,0,0,.39-.2,1,1,0,0,0,.28-.33A1,1,0,0,0,14,7.79a.69.69,0,0,0-.1-.39.85.85,0,0,0-.24-.26A1.29,1.29,0,0,0,13.32,7L13,6.85l-.22-.08a.1.1,0,0,1-.07-.1A.1.1,0,0,1,12.77,6.57Z"/><path class="cls-3" d="M6,17.58a1,1,0,0,1-.39-.07.92.92,0,0,1-.32-.18.79.79,0,0,1-.2-.3A.93.93,0,0,1,5,16.64a.92.92,0,0,1,.08-.38.79.79,0,0,1,.2-.3,1.08,1.08,0,0,1,.31-.19A1.17,1.17,0,0,1,6,15.7a1.28,1.28,0,0,1,.39.07.86.86,0,0,1,.31.19l-.35.42a.45.45,0,0,0-.13-.11.53.53,0,0,0-.19,0,.32.32,0,0,0-.14,0,.27.27,0,0,0-.12.09.3.3,0,0,0-.09.13.41.41,0,0,0,0,.16.45.45,0,0,0,.1.31.36.36,0,0,0,.31.11h.07l.07,0V16.9H5.9v-.47h.82v1l-.15.07-.17.05-.19,0Z"/><path class="cls-3" d="M7.69,15.75h.63L9,17.53H8.37l-.1-.26H7.71l-.09.26H7Zm.31.62-.15.45h.29Z"/><path class="cls-3" d="M9.85,16.53l0,1H9.32V15.75h.78l.32,1h0l.28-1h.8v1.78h-.58l0-1h0l-.33,1h-.42l-.33-1Z"/><path class="cls-3" d="M12,15.75h1.22v.5h-.66v.16h.62v.46h-.62V17h.71v.49H12Z"/><path class="cls-3" d="M14.3,17.58h-.21l-.2-.06-.18-.08a1,1,0,0,1-.15-.11l.36-.4a.43.43,0,0,0,.17.12.41.41,0,0,0,.21.05h.09a.08.08,0,0,0,0-.07.05.05,0,0,0,0,0,.11.11,0,0,0-.05,0l-.09,0-.16-.05L14,16.77a.58.58,0,0,1-.15-.11.45.45,0,0,1-.1-.14.42.42,0,0,1,0-.2.52.52,0,0,1,.07-.29.61.61,0,0,1,.17-.19.64.64,0,0,1,.24-.1.84.84,0,0,1,.27,0,1.21,1.21,0,0,1,.36.07,1.07,1.07,0,0,1,.32.2l-.38.38a.53.53,0,0,0-.14-.12l-.16,0-.11,0s0,0,0,.06a.07.07,0,0,0,0,.06l.14.06.2.07a.69.69,0,0,1,.19.1.57.57,0,0,1,.15.16A.41.41,0,0,1,15,17a.51.51,0,0,1-.07.28.62.62,0,0,1-.16.2.9.9,0,0,1-.24.12A1.18,1.18,0,0,1,14.3,17.58Z"/></g></g></svg>